<?xml version="1.0" encoding="UTF-8"?>
<!DOCTYPE svg PUBLIC "-//W3C//DTD SVG 1.1//EN" "http://www.w3.org/Graphics/SVG/1.1/DTD/svg11.dtd">
<!-- Creator: CorelDRAW X7 -->
<svg xmlns="http://www.w3.org/2000/svg" xml:space="preserve" width="83mm" height="83mm" version="1.1" style="shape-rendering:geometricPrecision; text-rendering:geometricPrecision; image-rendering:optimizeQuality; fill-rule:evenodd; clip-rule:evenodd"
viewBox="0 0 8300 8300"
 xmlns:xlink="http://www.w3.org/1999/xlink">
 <defs>
  <style type="text/css">
   <![CDATA[
    .fil0 {fill:#FEFEFE}
   ]]>
  </style>
 </defs>
 <g id="Layer_x0020_1">
  <metadata id="CorelCorpID_0Corel-Layer"/>
  <path class="fil0" d="M4150 413c1217,0 1361,4 1842,26 445,21 686,95 847,157 212,83 364,182 524,341 159,160 258,312 341,524 62,161 136,402 157,847 22,481 26,625 26,1842 0,1217 -4,1361 -26,1842 -21,444 -95,686 -157,846 -83,213 -182,365 -341,525 -160,159 -312,258 -524,341 -161,62 -402,136 -847,157 -170,7 -299,13 -448,17l0 -2927 906 0 135 -1051 -1041 0 0 -671c0,-305 85,-512 521,-512l557 0 0 -941c-96,-12 -427,-41 -811,-41 -803,0 -1352,490 -1352,1390l0 775 -908 0 0 1051 908 0 0 2936 -309 0c-1217,0 -1361,-4 -1842,-26 -444,-21 -686,-95 -846,-157 -213,-83 -365,-182 -525,-341 -159,-160 -258,-312 -341,-525 -62,-160 -136,-402 -157,-846 -21,-481 -26,-625 -26,-1842 0,-1217 5,-1361 26,-1842 21,-445 95,-686 157,-847 83,-212 182,-364 341,-524 160,-159 312,-258 525,-341 160,-62 402,-136 846,-157 481,-22 625,-26 1842,-26z"/>
 </g>
</svg>
