<?xml version="1.0" encoding="UTF-8"?>
<!DOCTYPE svg PUBLIC "-//W3C//DTD SVG 1.1//EN" "http://www.w3.org/Graphics/SVG/1.1/DTD/svg11.dtd">
<!-- Creator: CorelDRAW X7 -->
<svg xmlns="http://www.w3.org/2000/svg" xml:space="preserve" width="83mm" height="83mm" version="1.1" style="shape-rendering:geometricPrecision; text-rendering:geometricPrecision; image-rendering:optimizeQuality; fill-rule:evenodd; clip-rule:evenodd"
viewBox="0 0 8300 8300"
 xmlns:xlink="http://www.w3.org/1999/xlink">
 <defs>
  <style type="text/css">
   <![CDATA[
    .fil0 {fill:#FEFEFE}
   ]]>
  </style>
 </defs>
 <g id="Layer_x0020_1">
  <metadata id="CorelCorpID_0Corel-Layer"/>
  <g id="_603265056">
   <path class="fil0" d="M5523 7896l0 -2945 905 0 136 -1051 -1041 0 0 -671c0,-305 84,-512 521,-512l557 0 0 -940c-97,-13 -427,-42 -812,-42 -802,0 -1352,490 -1352,1390l0 775 -908 0 0 1051 908 0 0 2934 1086 11z"/>
   <path class="fil0" d="M4150 413c1217,0 1361,4 1842,26 445,21 686,95 847,157 212,83 364,182 524,341 159,160 258,312 341,524 62,161 136,402 157,847 22,480 26,625 26,1842 0,1217 -4,1361 -26,1842 -21,444 -95,686 -157,847 -83,212 -182,364 -341,524 -160,159 -312,258 -524,341 -161,62 -402,136 -847,157 -481,22 -625,26 -1842,26 -1217,0 -1361,-4 -1842,-26 -445,-21 -686,-95 -846,-157 -213,-83 -365,-182 -525,-341 -159,-160 -258,-312 -341,-524 -62,-161 -136,-403 -157,-847 -21,-481 -26,-625 -26,-1842 0,-1217 5,-1362 26,-1842 21,-445 95,-686 157,-847 83,-212 182,-364 341,-524 160,-159 312,-258 525,-341 160,-62 401,-136 846,-157 481,-22 625,-26 1842,-26zm0 -402c1348,0 1508,5 2040,29 492,23 760,105 938,174 235,92 403,201 580,378 177,176 286,345 378,580 69,178 151,446 174,938 24,532 29,692 29,2040 0,1348 -5,1508 -29,2040 -23,492 -105,760 -174,938 -92,235 -201,403 -378,580 -177,176 -345,286 -580,378 -178,69 -446,151 -938,173 -532,25 -692,30 -2040,30 -1348,0 -1508,-5 -2040,-30 -492,-22 -760,-104 -937,-173 -236,-92 -404,-202 -581,-378 -177,-177 -286,-345 -378,-580 -69,-178 -151,-446 -174,-938 -24,-532 -29,-692 -29,-2040 0,-1348 5,-1508 29,-2040 23,-492 105,-760 174,-938 92,-235 201,-404 378,-580 177,-177 345,-286 581,-378 177,-69 445,-151 937,-174 532,-24 692,-29 2040,-29z"/>
  </g>
 </g>
</svg>
