<?xml version="1.0" encoding="UTF-8"?>
<!DOCTYPE svg PUBLIC "-//W3C//DTD SVG 1.1//EN" "http://www.w3.org/Graphics/SVG/1.1/DTD/svg11.dtd">
<!-- Creator: CorelDRAW X7 -->
<svg xmlns="http://www.w3.org/2000/svg" xml:space="preserve" width="83mm" height="83mm" version="1.1" style="shape-rendering:geometricPrecision; text-rendering:geometricPrecision; image-rendering:optimizeQuality; fill-rule:evenodd; clip-rule:evenodd"
viewBox="0 0 8300 8300"
 xmlns:xlink="http://www.w3.org/1999/xlink">
 <defs>
  <style type="text/css">
   <![CDATA[
    .fil0 {fill:#FEFEFE}
   ]]>
  </style>
 </defs>
 <g id="Layer_x0020_1">
  <metadata id="CorelCorpID_0Corel-Layer"/>
  <path class="fil0" d="M4150 5464c-726,0 -1314,-589 -1314,-1314 0,-726 588,-1314 1314,-1314 726,0 1314,588 1314,1314 0,725 -588,1314 -1314,1314zm0 -5051c1217,0 1361,4 1842,26 445,21 686,95 847,157 212,83 364,182 524,341 159,160 258,312 341,524 62,161 136,402 157,847 22,480 26,625 26,1842 0,1217 -4,1361 -26,1842 -21,444 -95,686 -157,847 -83,212 -182,364 -341,524 -160,159 -312,258 -524,341 -161,62 -402,136 -847,157 -481,22 -625,26 -1842,26 -1217,0 -1361,-4 -1842,-26 -445,-21 -686,-95 -846,-157 -213,-83 -365,-182 -525,-341 -159,-160 -258,-312 -341,-524 -62,-161 -136,-403 -157,-847 -21,-481 -26,-625 -26,-1842 0,-1217 5,-1362 26,-1842 21,-445 95,-686 157,-847 83,-212 182,-364 341,-524 160,-159 312,-258 525,-341 160,-62 401,-136 846,-157 481,-22 625,-26 1842,-26zm2885 1436c0,291 -236,527 -527,527 -292,0 -528,-236 -528,-527 0,-292 236,-528 528,-528 291,0 527,236 527,528zm-2885 36c-1251,0 -2265,1014 -2265,2265 0,1251 1014,2265 2265,2265 1251,0 2265,-1014 2265,-2265 0,-1251 -1014,-2265 -2265,-2265z"/>
 </g>
</svg>
